<?xml version="1.0" standalone="no"?><svg xmlns="http://www.w3.org/2000/svg" viewBox="0 0 1440 320"><path fill="#273036" fill-opacity="1" d="M0,128L13.3,149.3C26.7,171,53,213,80,229.3C106.7,245,133,235,160,202.7C186.7,171,213,117,240,133.3C266.7,149,293,235,320,229.3C346.7,224,373,128,400,96C426.7,64,453,96,480,128C506.7,160,533,192,560,181.3C586.7,171,613,117,640,112C666.7,107,693,149,720,181.3C746.7,213,773,235,800,234.7C826.7,235,853,213,880,213.3C906.7,213,933,235,960,240C986.7,245,1013,235,1040,213.3C1066.7,192,1093,160,1120,138.7C1146.7,117,1173,107,1200,122.7C1226.7,139,1253,181,1280,202.7C1306.7,224,1333,224,1360,224C1386.7,224,1413,224,1427,224L1440,224L1440,0L1426.7,0C1413.3,0,1387,0,1360,0C1333.3,0,1307,0,1280,0C1253.3,0,1227,0,1200,0C1173.3,0,1147,0,1120,0C1093.3,0,1067,0,1040,0C1013.3,0,987,0,960,0C933.3,0,907,0,880,0C853.3,0,827,0,800,0C773.3,0,747,0,720,0C693.3,0,667,0,640,0C613.3,0,587,0,560,0C533.3,0,507,0,480,0C453.3,0,427,0,400,0C373.3,0,347,0,320,0C293.3,0,267,0,240,0C213.3,0,187,0,160,0C133.3,0,107,0,80,0C53.3,0,27,0,13,0L0,0Z"></path></svg>